<svg width="300" height="300" viewBox="0 0 300 300" fill="none" xmlns="http://www.w3.org/2000/svg">
<path fill-rule="evenodd" clip-rule="evenodd" d="M148.655 32.798C144.34 34.0325 138.16 35.7535 134.923 36.6235C131.687 37.4928 119.622 40.7344 108.113 43.826C96.6046 46.9177 86.9373 49.5276 86.63 49.6258C86.3226 49.724 92.2078 51.6793 99.7081 53.9711C107.208 56.2622 117.317 59.3866 122.172 60.9131C127.028 62.4403 133.133 64.3236 135.741 65.098L140.482 66.5067V112.805V159.105L132.471 160.636C113.511 164.261 96.859 172.947 83.8162 186.016C76.144 193.704 76.826 194.023 75.6149 182.173C73.8644 165.034 78.1259 147.235 87.329 133.254C91.5846 126.789 102.397 115.644 108.113 111.831C115.662 106.794 123.967 102.941 131.163 101.136L133.943 100.44V91.3004C133.943 84.4198 133.741 82.1641 133.125 82.1726C131.179 82.2001 123.301 84.1488 118.527 85.7847C106.023 90.0697 94.8306 97.1106 85.2365 106.728C70.9421 121.059 61.5233 138.597 58.4781 156.556C54.862 177.885 57.9105 199.115 67.2992 217.991C71.8877 227.216 77.9899 235.443 86.0957 243.332C105.791 262.501 129.581 271.05 158.274 269.27C197.629 266.829 232.262 235.254 241.5 193.395C243.109 186.102 243.519 167.92 242.26 159.684C237.45 128.224 215.437 100.266 185.344 87.395C178.674 84.5423 168.852 81.7366 162.953 80.9989L159.118 80.5197L158.947 55.4838C158.787 32.184 158.697 30.4519 157.639 30.501C157.014 30.5304 152.971 31.564 148.655 32.798ZM159.156 99.6884C158.955 99.8894 158.791 113.374 158.791 129.653V159.254L162.436 159.71C168.766 160.502 178.504 163.144 185.213 165.89C198.382 171.28 208.342 178.321 218.6 189.491C220.567 191.633 222.308 193.176 222.467 192.919C223.528 191.2 224.835 181.247 224.835 174.888C224.835 150.548 213.396 128.171 193.448 113.486C182.743 105.606 175.86 102.684 160.627 99.551C160.018 99.4259 159.357 99.4881 159.156 99.6884ZM140.809 177.782C130.364 179.02 118.51 183.199 109.045 188.981C102.717 192.847 91.822 203.347 87.9175 209.343L85.4497 213.133L88.5655 218.18C92.8061 225.05 103.214 235.266 110.669 239.876C117.099 243.853 124.736 247.117 132.41 249.17C138.987 250.929 154.038 251.573 161.282 250.405C180.741 247.266 199.472 235.349 210.589 219.034L214.324 213.552L211.021 208.77C207.154 203.168 198.721 194.854 192.883 190.886C177.706 180.568 158.366 175.702 140.809 177.782Z" fill="#92D547"/>
</svg>
