<svg width="1190" height="239" viewBox="0 0 1190 239" fill="none" xmlns="http://www.w3.org/2000/svg">
<path fill-rule="evenodd" clip-rule="evenodd" d="M91.6554 2.29797C87.3397 3.53255 81.1603 5.2535 77.9234 6.12346C74.6866 6.99278 62.6221 10.2344 51.1133 13.326C39.6046 16.4177 29.9373 19.0276 29.63 19.1258C29.3226 19.224 35.2078 21.1793 42.7081 23.4711C50.2083 25.7622 60.3171 28.8866 65.1723 30.4131C70.0275 31.9403 76.133 33.8236 78.7408 34.598L83.4816 36.0067V82.3053V128.605L75.4713 130.136C56.5113 133.761 39.859 142.447 26.8162 155.516C19.144 163.204 19.826 163.523 18.6149 151.673C16.8644 134.534 21.1259 116.735 30.329 102.754C34.5846 96.2889 45.3969 85.1443 51.1133 81.3306C58.662 76.2941 66.9673 72.4411 74.1635 70.6364L76.9426 69.9399V60.8004C76.9426 53.9198 76.7405 51.6641 76.1252 51.6726C74.1785 51.7001 66.3009 53.6488 61.5274 55.2847C49.0228 59.5697 37.8306 66.6106 28.2365 76.228C13.9421 90.5585 4.5233 108.097 1.47806 126.056C-2.13803 147.385 0.910476 168.615 10.2992 187.491C14.8877 196.716 20.9899 204.943 29.0957 212.832C48.7907 232.001 72.581 240.55 101.274 238.77C140.629 236.329 175.262 204.754 184.5 162.895C186.109 155.602 186.519 137.42 185.26 129.184C180.45 97.7238 158.437 69.7658 128.344 56.895C121.674 54.0423 111.852 51.2366 105.953 50.4989L102.118 50.0197L101.947 24.9838C101.787 1.68395 101.697 -0.0481268 100.639 0.000968297C100.014 0.0304254 95.9712 1.06404 91.6554 2.29797ZM102.156 69.1884C101.955 69.3894 101.791 82.8735 101.791 99.1535V128.754L105.436 129.21C111.766 130.002 121.504 132.644 128.213 135.39C141.382 140.78 151.342 147.821 161.6 158.991C163.567 161.133 165.308 162.676 165.467 162.419C166.528 160.7 167.835 150.747 167.835 144.388C167.835 120.048 156.396 97.6708 136.448 82.9861C125.743 75.106 118.86 72.1839 103.627 69.051C103.018 68.9259 102.357 68.9881 102.156 69.1884ZM83.8086 147.282C73.3638 148.52 61.5098 152.699 52.0452 158.481C45.7173 162.347 34.822 172.847 30.9175 178.843L28.4497 182.633L31.5655 187.68C35.8061 194.55 46.2136 204.766 53.6695 209.376C60.0993 213.353 67.7363 216.617 75.4098 218.67C81.9868 220.429 97.0384 221.073 104.282 219.905C123.741 216.766 142.472 204.849 153.589 188.534L157.324 183.052L154.021 178.27C150.154 172.668 141.721 164.354 135.883 160.386C120.706 150.068 101.366 145.202 83.8086 147.282Z" fill="#92D547"/>
<path fill-rule="evenodd" clip-rule="evenodd" d="M326.229 31.8123C289.604 35.6843 262.003 59.0173 252.402 94.2213C249.227 105.865 249.194 131.7 252.34 143.05C261.231 175.121 282.943 196.658 315.135 205.335C325.911 208.24 351.146 208.015 362.497 204.913C386.385 198.387 404.235 183.745 415.096 161.768C420.614 150.605 422.531 142.054 423.236 125.471L423.862 110.721H377.707H331.552V123.721V136.721H362.659H393.768L393.135 139.471C392.786 140.983 390.721 145.87 388.547 150.329C376.673 174.69 347.136 186.345 320.195 177.301C294.609 168.712 278.586 146.346 278.586 119.221C278.586 91.9263 295.323 68.8033 320.484 61.3333C329.164 58.7573 344.66 59.1533 354.25 62.1983C366.423 66.0623 374.438 72.0303 384.265 84.5453L386.09 86.8693L399.302 80.6503L412.517 74.4303L410.305 70.4963C409.089 68.3323 405.609 63.6763 402.573 60.1513C384.735 39.4393 355.774 28.6893 326.229 31.8123ZM670.742 41.6673C659.257 44.9513 649.724 53.5033 645.934 63.9223C645.074 66.2873 644.123 73.0593 643.82 78.9713L643.268 89.7213H633.409H623.552V101.221V112.721H633.552H643.552V160.221V207.721H657.552H671.552V160.221V112.721H686.052H700.552V101.248V89.7763L686.302 89.4983L672.052 89.2213L671.705 86.2213C671.105 81.0273 673.518 72.8303 676.72 69.1823C680.277 65.1313 684.65 63.7343 693.802 63.7273L700.552 63.7213V51.7213V39.7213L688.802 39.7923C680.663 39.8423 675.113 40.4183 670.742 41.6673ZM581.552 124.693V207.721H595.557H609.564L609.307 124.971L609.052 42.2213L595.302 41.9433L581.552 41.6653V124.693ZM483.754 82.7433C467.099 87.1063 452.29 99.2193 444.659 114.721C432.076 140.284 437.361 172.142 457.279 190.782C464.784 197.805 470.224 201.106 479.819 204.458C486.015 206.623 495.027 207.721 502.527 207.721C514.027 207.721 520.734 206.115 531.552 200.895C537.066 198.235 541.047 195.284 546.588 189.749C572.519 163.846 571.713 120.807 544.845 96.7773C537.903 90.5673 525.227 84.0453 516.44 82.1613C507.213 80.1823 492.53 80.4443 483.754 82.7433ZM490.838 108.113C476.195 112.894 467.228 124.412 465.898 140.148C463.968 162.978 483.027 181.521 501.659 181.521C517.027 181.521 527.739 175.04 534.448 160.721C536.674 155.969 537.027 153.861 537.039 145.221C537.056 132.349 535.005 126.438 527.833 118.672C520.884 111.148 512.932 107.494 502.552 107.054C498.029 106.863 493.379 107.283 490.838 108.113Z" fill="#F3F3F3"/>
<path fill-rule="evenodd" clip-rule="evenodd" d="M818.148 41.2795C796.953 46.0785 780.032 56.1625 767.727 71.3305C762.042 78.3375 754.875 92.6005 752.418 101.795C749.909 111.187 749.933 135.699 752.461 145.295C756.39 160.207 763.635 172.199 775.833 183.981C788.951 196.652 802.641 203.786 819.621 206.799C829.843 208.613 853.509 207.611 862.183 204.998C890.366 196.506 912.902 173.539 920.208 145.863C922.945 135.494 923.156 114.403 920.629 103.795C913.751 74.9235 891.536 52.2165 861.332 43.1825C850.296 39.8825 828.553 38.9245 818.148 41.2795ZM819.535 69.6625C804.553 73.9675 792.075 84.5725 785.258 98.7955C769.515 131.638 786.748 169.192 821.746 178.308C829.007 180.199 844.903 180.206 851.99 178.32C867.594 174.167 879.846 164.152 886.888 149.795C889.181 145.12 891.552 138.595 892.156 135.295C893.729 126.697 892.758 111.581 890.163 104.295C884.12 87.3265 869.238 74.1875 850.575 69.3425C842.618 67.2775 827.286 67.4345 819.535 69.6625ZM989.535 88.1945C983.069 90.2395 978.987 92.7275 973.343 98.0655L968.035 103.085V96.4405V89.7955H954.035H940.035V148.295V206.795H953.967H967.899L968.268 171.045C968.683 130.852 968.869 129.674 976.072 121.49C981.363 115.479 988.576 112.36 997.035 112.424C1004.77 112.483 1009.33 114.257 1015.06 119.44C1023.43 126.997 1023.47 127.246 1023.83 169.545L1024.15 206.795H1038.09H1052.04L1052.02 166.045C1052.01 135.212 1051.69 124.078 1050.67 120.295C1046.59 105.025 1035.41 93.4675 1020.18 88.7595C1012.73 86.4585 996.001 86.1495 989.535 88.1945ZM1112.6 86.3975C1093.23 91.0835 1077.7 105.454 1070.3 125.553C1068.43 130.633 1067.69 135.006 1067.3 143.295C1066.66 156.904 1067.9 163.288 1073.28 174.089C1081.43 190.444 1097.25 202.402 1116.04 206.396C1125.88 208.489 1141.93 207.798 1151.16 204.884C1165.32 200.413 1178.25 188.991 1184.66 175.295L1187 170.295L1173.01 170.018L1159.02 169.74L1155.94 173.247C1154.25 175.176 1149.87 178.226 1146.22 180.024C1140.06 183.059 1138.85 183.295 1129.56 183.295C1120.79 183.295 1118.82 182.962 1113.84 180.625C1104.46 176.227 1096.77 167.001 1094.62 157.545L1094 154.795H1141.64H1189.28L1188.82 143.045C1188.46 133.706 1187.82 129.761 1185.72 123.818C1178.85 104.378 1163.19 90.4765 1143.45 86.2945C1134.81 84.4635 1120.4 84.5115 1112.6 86.3975ZM1119.96 109.1C1117.45 109.812 1113.32 111.612 1110.78 113.1C1103.98 117.086 1096.04 127.597 1096.04 132.614C1096.04 134.463 1097.21 134.537 1128.54 134.664C1159.54 134.789 1161.04 134.71 1161.04 132.944C1161.04 130.214 1156.34 121.782 1152.7 117.986C1145.26 110.213 1130.34 106.163 1119.96 109.1Z" fill="#F3F3F3"/>
</svg>
